<svg xmlns="http://www.w3.org/2000/svg" fill="none" viewBox="0 0 24 24"><g fill="currentColor" clip-path="url(#a)"><path d="M12.099 10.712c.13.062.13.062.266.14l.155.09.166.097.174.1q.66.385 1.315.776.641.38 1.29.747.602.345 1.202.695.515.301 1.034.596v6.76l-1.065.602-.61.361q-.64.383-1.288.75a79 79 0 0 0-1.305.758l-.158.093q-.341.202-.68.41l-.11.066-.196.12c-.167.1-.274.147-.468.127-.11-.05-.11-.05-.227-.119l-.132-.078-.142-.087-.302-.18-.156-.093q-.35-.209-.702-.412l-.138-.081q-.508-.295-1.017-.588-.699-.402-1.392-.817c-.477-.284-.958-.557-1.44-.832v-6.76l1.296-.74.834-.487q.435-.254.87-.504a102 102 0 0 0 2.214-1.312q.098-.06.193-.121c.197-.121.297-.132.519-.077M6.08.095c.13.061.13.061.266.14l.495.287q.66.385 1.315.776.641.38 1.29.747.602.345 1.202.695.515.3 1.034.596v6.76l-1.065.601q-.306.18-.61.362-.64.382-1.288.75-.657.371-1.305.758l-.157.093q-.342.202-.682.41l-.11.066-.195.12c-.167.1-.274.146-.468.127-.11-.05-.11-.05-.227-.12l-.132-.078L5.3 13.1l-.3-.18-.156-.093a68 68 0 0 0-.84-.493l-1.017-.588q-.699-.402-1.392-.817c-.477-.284-.958-.557-1.44-.832v-6.76l1.296-.741.834-.487q.435-.253.87-.503.593-.34 1.181-.69l.239-.141Q4.919.57 5.259.36l.109-.067q.098-.06.193-.122c.197-.12.297-.131.519-.076m12.055.008c.13.061.13.061.267.14l.155.09.165.097.174.1q.66.385 1.315.776.641.38 1.29.747.603.345 1.202.695.515.3 1.034.596v6.76l-1.065.602-.61.361a70 70 0 0 1-1.288.75q-.657.372-1.305.758l-.157.093q-.342.202-.681.41-.055.031-.11.066l-.196.12c-.167.1-.274.147-.468.127-.11-.05-.11-.05-.227-.12l-.132-.078-.444-.266-.155-.093q-.35-.209-.703-.412l-.138-.081q-.507-.296-1.017-.588-.699-.402-1.392-.817c-.476-.284-.958-.557-1.44-.832v-6.76c.427-.245.855-.49 1.296-.74l.834-.488q.435-.253.87-.503A102 102 0 0 0 17.314.368l.11-.067.192-.122c.198-.12.298-.131.519-.076"/></g><defs><clipPath id="a"><path fill="#fff" d="M0 0h24v24H0z"/></clipPath></defs></svg>
